<!DOCTYPE svg PUBLIC "-//W3C//DTD SVG 1.1//EN" "http://www.w3.org/Graphics/SVG/1.1/DTD/svg11.dtd">
<!-- Uploaded to: SVG Repo, www.svgrepo.com, Transformed by: SVG Repo Mixer Tools -->
<svg fill="#f1f5f9" height="76px" width="76px" version="1.1" id="Layer_1" xmlns="http://www.w3.org/2000/svg" xmlns:xlink="http://www.w3.org/1999/xlink" viewBox="0 0 512 512" xml:space="preserve" stroke="#f1f5f9">
<g id="SVGRepo_bgCarrier" stroke-width="0"/>
<g id="SVGRepo_tracerCarrier" stroke-linecap="round" stroke-linejoin="round"/>
<g id="SVGRepo_iconCarrier"> <g> <g> <g> <path d="M448,192.002h-21.333v-21.335C426.667,76.41,350.257,0,256,0S85.333,76.41,85.333,170.667v21.335H64 c-11.782,0-21.333,9.551-21.333,21.333V384v0.002V448c0,35.355,28.645,64,64,64h298.667c35.355,0,64-28.645,64-64v-63.998V384 V213.335C469.333,201.553,459.782,192.002,448,192.002z M128,170.667c0-70.693,57.307-128,128-128c70.693,0,128,57.307,128,128 V192H128V170.667z M426.667,234.669v127.998H85.333V234.669H426.667z M405.333,469.333H106.667 c-11.791,0-21.333-9.542-21.333-21.333v-42.665h341.333V448C426.667,459.791,417.125,469.333,405.333,469.333z"/> <path d="M170.667,341.333c11.782,0,21.333-9.551,21.333-21.333v-42.667c0-11.782-9.551-21.333-21.333-21.333 c-11.782,0-21.333,9.551-21.333,21.333V320C149.333,331.782,158.885,341.333,170.667,341.333z"/> <path d="M256,341.333c11.782,0,21.333-9.551,21.333-21.333v-42.667c0-11.782-9.551-21.333-21.333-21.333 c-11.782,0-21.333,9.551-21.333,21.333V320C234.667,331.782,244.218,341.333,256,341.333z"/> <path d="M341.333,341.333c11.782,0,21.333-9.551,21.333-21.333v-42.667c0-11.782-9.551-21.333-21.333-21.333 C329.551,256,320,265.551,320,277.333V320C320,331.782,329.551,341.333,341.333,341.333z"/> </g> </g> </g> </g>
</svg>