<!DOCTYPE svg PUBLIC "-//W3C//DTD SVG 1.1//EN" "http://www.w3.org/Graphics/SVG/1.1/DTD/svg11.dtd">
<!-- Uploaded to: SVG Repo, www.svgrepo.com, Transformed by: SVG Repo Mixer Tools -->
<svg height="64px" width="64px" version="1.1" id="Layer_1" xmlns="http://www.w3.org/2000/svg" xmlns:xlink="http://www.w3.org/1999/xlink" viewBox="0 0 511.117 511.117" xml:space="preserve" fill="#1e293b">
<g id="SVGRepo_bgCarrier" stroke-width="0"/>
<g id="SVGRepo_tracerCarrier" stroke-linecap="round" stroke-linejoin="round"/>
<g id="SVGRepo_iconCarrier"> <g transform="translate(1 1)"> <g> <path style="fill:#1e293bE2E3E5;" d="M386.531,254.559c0,58.262-47.669,105.931-105.931,105.931s-105.931-47.669-105.931-105.931 S222.338,148.628,280.6,148.628S386.531,196.297,386.531,254.559"/> <path style="fill:#1e293bE2E3E5;" d="M7.828,272.214c-2.648,0-4.414-0.883-6.179-2.648c-3.531-3.531-3.531-8.828,0-12.359l1.766-1.766 C70.503,187.469,159.662,150.393,255,150.393l0,0c95.338,0,185.379,37.076,252.469,105.048c3.531,3.531,3.531,8.828,0,12.359 c-3.531,3.531-8.828,3.531-12.359,0c-63.559-64.441-149.186-99.752-240.11-99.752S79.331,203.359,15.772,267.8l-1.766,1.766 C12.241,271.331,9.593,272.214,7.828,272.214z"/> </g> <path style="fill:#1e293b1e293b;" d="M360.048,254.559c0,58.262-47.669,105.931-105.931,105.931s-105.931-47.669-105.931-105.931 s47.669-105.931,105.931-105.931S360.048,196.297,360.048,254.559"/> <path style="fill:#1e293bE2E3E5;" d="M333.566,254.559c0,58.262-41.49,105.931-92.69,105.931s-92.69-47.669-92.69-105.931 s41.49-105.931,92.69-105.931S333.566,196.297,333.566,254.559"/> <path style="fill:#1e293bFFFFFF;" d="M229.4,360.49c-32.662-19.421-54.731-58.262-54.731-103.283s22.069-83.862,54.731-103.283 c-46.786,11.476-81.214,52.966-81.214,103.283S182.614,349.014,229.4,360.49"/> <g> <path style="fill:#1e293b;" d="M7.828,261.621c-2.648,0-4.414-0.883-6.179-2.648c-3.531-3.531-3.531-8.828,0-12.359l1.766-1.766 C70.503,176.876,159.662,139.8,255,139.8l0,0c95.338,0,185.379,37.076,252.469,105.048c3.531,3.531,3.531,8.828,0,12.359 c-3.531,3.531-8.828,3.531-12.359,0c-63.559-64.441-149.186-99.752-240.11-99.752s-175.669,35.31-239.228,99.752l-1.766,1.766 C12.241,260.738,9.593,261.621,7.828,261.621z"/> <path style="fill:#1e293b;" d="M255,325.179c-38.841,0-70.621-31.779-70.621-70.621s31.779-70.621,70.621-70.621 c5.297,0,8.828,3.531,8.828,8.828c0,5.297-3.531,8.828-8.828,8.828c-29.131,0-52.966,23.834-52.966,52.966 s23.834,52.966,52.966,52.966s52.966-23.834,52.966-52.966c0-5.297,3.531-8.828,8.828-8.828s8.828,3.531,8.828,8.828 C325.621,293.4,293.841,325.179,255,325.179z"/> <path style="fill:#1e293b;" d="M254.117,369.317c-63.559,0-114.759-51.2-114.759-114.759S190.559,139.8,254.117,139.8 S368.876,191,368.876,254.559c0,22.952-7.062,45.021-19.421,64.441c-2.648,4.414-7.945,5.297-12.359,2.648 c-4.414-2.648-5.297-7.945-2.648-12.359c10.593-15.89,16.772-34.428,16.772-54.731c0-53.848-43.255-97.103-97.103-97.103 s-97.103,43.255-97.103,97.103s43.255,97.103,97.103,97.103c14.124,0,27.366-2.648,39.724-8.828c4.414-1.766,9.71,0,11.476,4.414 s0,9.71-4.414,11.476C286.779,365.786,270.89,369.317,254.117,369.317z"/> <path style="fill:#1e293b;" d="M332.683,334.007c0,5.297-3.531,8.828-8.828,8.828s-8.828-3.531-8.828-8.828 c0-5.297,3.531-8.828,8.828-8.828S332.683,328.71,332.683,334.007"/> </g> </g> </g>
</svg>